<?xml version="1.0" encoding="UTF-8"?>
<svg id="Layer_2" data-name="Layer 2" xmlns="http://www.w3.org/2000/svg" viewBox="0 0 338.87 64.7">
  <defs>
    <style>
      .cls-1, .cls-2 {
        fill: #14395e;
      }

      .cls-3 {
        fill: none;
        stroke-width: .22px;
      }

      .cls-3, .cls-2 {
        stroke: #133a5e;
        stroke-miterlimit: 10;
      }

      .cls-2 {
        stroke-width: .38px;
      }
    </style>
  </defs>
  <g id="Layer_1-2" data-name="Layer 1">
    <g>
      <g>
        <g>
          <polygon class="cls-1" points="76.74 .11 83.43 11.47 30.72 11.47 23.85 .11 76.74 .11"/>
          <polygon class="cls-3" points="76.74 .11 83.43 11.47 30.72 11.47 23.85 .11 76.74 .11"/>
        </g>
        <g>
          <polygon class="cls-1" points="87.2 17.8 93.89 29.16 41.18 29.16 34.31 17.8 87.2 17.8"/>
          <polygon class="cls-3" points="87.2 17.8 93.89 29.16 41.18 29.16 34.31 17.8 87.2 17.8"/>
        </g>
        <g>
          <polygon class="cls-1" points="44.55 35.97 51.09 47.32 87.02 47.32 93.89 35.97 44.55 35.97"/>
          <polygon class="cls-3" points="44.55 35.97 51.09 47.32 87.02 47.32 93.89 35.97 44.55 35.97"/>
        </g>
        <g>
          <polygon class="cls-1" points="84.75 53.06 78.29 63.58 65.8 63.58 72.32 53.06 84.75 53.06"/>
          <polygon class="cls-3" points="84.75 53.06 78.29 63.58 65.8 63.58 72.32 53.06 84.75 53.06"/>
        </g>
        <g>
          <polygon class="cls-1" points="62.93 53.06 26.54 53.06 14.52 32.8 18.47 26.11 31.67 47.32 43.5 47.32 18.41 3.94 .13 32.44 20.26 63.28 56.9 63.58 62.93 53.06"/>
          <polygon class="cls-3" points="62.93 53.06 26.54 53.06 14.52 32.8 18.47 26.11 31.67 47.32 43.5 47.32 18.41 3.94 .13 32.44 20.26 63.28 56.9 63.58 62.93 53.06"/>
        </g>
      </g>
      <g>
        <path class="cls-2" d="M150.2,11.13h-28.3v15.23h26.05c1.92,0,3.35.43,4.29,1.29.94.86,1.42,2,1.42,3.41s-.47,2.56-1.4,3.45c-.93.89-2.37,1.33-4.31,1.33h-26.05v17.64h29.27c1.97,0,3.46.46,4.46,1.38,1,.92,1.5,2.14,1.5,3.66s-.5,2.66-1.5,3.57c-1,.92-2.49,1.38-4.46,1.38h-34.13c-2.74,0-4.7-.61-5.9-1.82-1.2-1.21-1.8-3.17-1.8-5.88V9.14c0-1.8.27-3.28.8-4.42.54-1.14,1.37-1.97,2.52-2.5,1.14-.52,2.6-.78,4.38-.78h33.16c2,0,3.49.44,4.46,1.33.97.89,1.46,2.05,1.46,3.49s-.49,2.64-1.46,3.53c-.97.89-2.46,1.33-4.46,1.33Z"/>
        <path class="cls-2" d="M174.57,8.63l14.04,41.58,14.08-41.87c.73-2.2,1.28-3.73,1.65-4.59.37-.86.97-1.63,1.82-2.33.85-.69,2-1.04,3.47-1.04,1.07,0,2.07.27,2.98.8.92.54,1.63,1.25,2.16,2.14.52.89.78,1.78.78,2.69,0,.62-.08,1.29-.25,2.01-.17.72-.38,1.42-.63,2.11-.25.69-.51,1.4-.76,2.14l-15.02,40.52c-.54,1.55-1.07,3.02-1.61,4.42-.54,1.4-1.16,2.62-1.86,3.68-.71,1.06-1.64,1.92-2.81,2.6s-2.6,1.02-4.29,1.02-3.12-.33-4.29-.99c-1.17-.66-2.12-1.54-2.83-2.62s-1.35-2.32-1.88-3.7c-.54-1.38-1.07-2.85-1.61-4.4l-14.76-40.18c-.25-.73-.51-1.45-.78-2.16-.27-.7-.49-1.47-.68-2.28-.18-.82-.28-1.51-.28-2.07,0-1.44.58-2.75,1.73-3.93,1.16-1.18,2.61-1.78,4.36-1.78,2.14,0,3.66.66,4.55,1.97s1.8,3.41,2.73,6.28Z"/>
        <path class="cls-2" d="M258.53,56.43l-2.96-7.78h-25.21l-2.96,7.95c-1.16,3.1-2.14,5.2-2.96,6.28-.82,1.09-2.16,1.63-4.02,1.63-1.58,0-2.97-.58-4.19-1.73-1.21-1.16-1.82-2.47-1.82-3.93,0-.85.14-1.72.42-2.62s.75-2.16,1.4-3.76l15.86-40.27c.45-1.16.99-2.54,1.63-4.17s1.31-2.97,2.03-4.04c.72-1.07,1.66-1.94,2.83-2.6,1.17-.66,2.62-.99,4.33-.99s3.21.33,4.38.99c1.17.66,2.12,1.52,2.83,2.56.72,1.04,1.33,2.16,1.82,3.36.49,1.2,1.12,2.8,1.88,4.8l16.2,40.01c1.27,3.05,1.9,5.26,1.9,6.64s-.6,2.76-1.8,3.96c-1.2,1.2-2.64,1.8-4.34,1.8-.99,0-1.83-.18-2.54-.53s-1.3-.83-1.78-1.44-.99-1.54-1.54-2.79c-.55-1.25-1.02-2.36-1.42-3.32ZM233.66,39.21h18.53l-9.35-25.59-9.18,25.59Z"/>
        <path class="cls-2" d="M300.36,54.1l-9.94-39.5v42.8c0,2.37-.53,4.15-1.59,5.33-1.06,1.18-2.46,1.78-4.21,1.78s-3.07-.59-4.14-1.76c-1.07-1.17-1.61-2.95-1.61-5.35V8.34c0-2.71.7-4.53,2.11-5.48s3.31-1.42,5.71-1.42h3.89c2.34,0,4.04.21,5.1.63,1.06.42,1.84,1.18,2.35,2.28s1.08,2.89,1.73,5.37l9.01,33.96,9.01-33.96c.65-2.48,1.23-4.27,1.73-5.37.51-1.1,1.29-1.86,2.35-2.28,1.06-.42,2.76-.63,5.1-.63h3.89c2.4,0,4.3.47,5.71,1.42s2.12,2.77,2.12,5.48v49.06c0,2.37-.53,4.15-1.59,5.33-1.06,1.18-2.47,1.78-4.25,1.78-1.66,0-3.03-.59-4.1-1.78-1.07-1.18-1.61-2.96-1.61-5.33V14.6l-9.94,39.5c-.65,2.57-1.18,4.45-1.59,5.65-.41,1.2-1.16,2.29-2.26,3.28-1.1.99-2.62,1.48-4.57,1.48-1.47,0-2.71-.32-3.72-.95-1.02-.63-1.8-1.44-2.37-2.43-.56-.99-1.01-2.08-1.33-3.28-.32-1.2-.66-2.45-.99-3.74Z"/>
      </g>
    </g>
  </g>
</svg>